<svg id="Layer_1" data-name="Layer 1" xmlns="http://www.w3.org/2000/svg" viewBox="0 0 595.28 841.89"><defs><style>.cls-1,.cls-2{fill:#3c3c3b;}.cls-2{font-size:85px;font-family:Lato-Regular, Lato;}.cls-3{letter-spacing:0em;}.cls-4{letter-spacing:-0.03em;}.cls-5{letter-spacing:-0.02em;}</style></defs><path class="cls-1" d="M229.15,39.3h52.52a0,0,0,0,1,0,0v105a0,0,0,0,1,0,0H229.15a52.52,52.52,0,0,1-52.52-52.52v0A52.52,52.52,0,0,1,229.15,39.3Z"/><rect class="cls-1" x="287.6" y="39.3" width="114.07" height="48"/><path class="cls-1" d="M348.87,144.34h52.52a0,0,0,0,1,0,0v105a0,0,0,0,1,0,0H348.87a52.52,52.52,0,0,1-52.52-52.52v0a52.52,52.52,0,0,1,52.52-52.52Z" transform="translate(697.73 393.71) rotate(180)"/><rect class="cls-1" x="176.63" y="201.47" width="114.07" height="48" transform="translate(467.33 450.93) rotate(-180)"/><text class="cls-2" transform="translate(80.03 343.89)"><tspan class="cls-3">S</tspan><tspan x="45.86" y="0">WIF</tspan><tspan class="cls-4" x="205.74" y="0">T</tspan><tspan x="253.38" y="0" xml:space="preserve"> CA</tspan><tspan class="cls-5" x="389.47" y="0">R</tspan><tspan class="cls-4" x="440.72" y="0">T</tspan></text></svg>