<svg id="Layer_1" data-name="Layer 1" xmlns="http://www.w3.org/2000/svg" viewBox="0 0 215.67 144.2"><defs><style>.cls-1,.cls-2{fill:#3c3c3b;}.cls-2{font-size:37.44px;font-family:Lato-Regular, Lato;}.cls-3{letter-spacing:0em;}.cls-4{letter-spacing:-0.03em;}.cls-5{letter-spacing:-0.02em;}.cls-6{letter-spacing:-0.03em;}</style></defs><path class="cls-1" d="M65.68,0H88.81a0,0,0,0,1,0,0V46.26a0,0,0,0,1,0,0H65.68A23.13,23.13,0,0,1,42.55,23.13v0A23.13,23.13,0,0,1,65.68,0Z"/><rect class="cls-1" x="91.42" width="50.24" height="21.14"/><path class="cls-1" d="M118.41,46.26h23.13a0,0,0,0,1,0,0V92.52a0,0,0,0,1,0,0H118.41A23.13,23.13,0,0,1,95.27,69.39v0A23.13,23.13,0,0,1,118.41,46.26Z" transform="translate(236.81 138.78) rotate(-180)"/><rect class="cls-1" x="42.55" y="71.42" width="50.24" height="21.14" transform="translate(135.34 163.99) rotate(-180)"/><text class="cls-2" transform="translate(0 134.15)"><tspan class="cls-3">S</tspan><tspan x="20.2" y="0">WIF</tspan><tspan class="cls-4" x="90.62" y="0">T</tspan><tspan x="111.6" y="0" xml:space="preserve"> CA</tspan><tspan class="cls-5" x="171.53" y="0">R</tspan><tspan class="cls-6" x="194.11" y="0">T</tspan></text></svg>